<svg width="32" height="32" viewBox="0 0 32 32" fill="#000000"><path fill-rule="evenodd" clip-rule="evenodd" d="M7.373 8.317a2.667 2.667 0 00-2.578-1.984H4.5l-.099.008A.667.667 0 004.5 7.667h.295l.126.006a1.333 1.333 0 011.183 1.07l1.85 9.415.039.168a2.667 2.667 0 002.578 1.985h11.7l.176-.006a2.667 2.667 0 002.386-1.924l1.574-5.473.045-.181a2.665 2.665 0 00-2.608-3.223H7.612l-.2-1.018-.039-.169zm.501 2.52l1.388 7.064c.115.584.6 1.015 1.182 1.07l.127.006h11.7c.548 0 1.035-.335 1.236-.836l.045-.129 1.573-5.473a1.333 1.333 0 00-1.153-1.696l-.128-.005H7.874zm.626 12.83a2.333 2.333 0 114.667 0 2.333 2.333 0 01-4.667 0zm3.333 0a1 1 0 10-2 0 1 1 0 002 0zm11.334-2.334a2.333 2.333 0 100 4.667 2.333 2.333 0 000-4.667zm0 1.334a1 1 0 110 2 1 1 0 010-2z" fill="#000000"/></svg>